<?xml version="1.0" ?><svg data-name="Layer 1" id="Layer_1" viewBox="0 0 64 64" xmlns="http://www.w3.org/2000/svg"><title/><path d="M54.25,55.25H9.75a1,1,0,0,1-1-1V9.75a1,1,0,0,1,1-1h44.5a1,1,0,0,1,1,1v44.5A1,1,0,0,1,54.25,55.25Zm-43.5-2h42.5V10.75H10.75Z"/><path d="M34.05,46.33a14.36,14.36,0,0,1-1.34-28.66,1,1,0,0,1,1,.58,1,1,0,0,1-.22,1.14,12.24,12.24,0,0,0-3.78,8.88A12.38,12.38,0,0,0,42.07,40.64a10.94,10.94,0,0,0,1.15,0A1,1,0,0,1,44,42.3,14.23,14.23,0,0,1,34.05,46.33ZM30.18,20.22A12.37,12.37,0,1,0,40.45,42.55,14.37,14.37,0,0,1,30.18,20.22Z"/></svg>